<svg xmlns="http://www.w3.org/2000/svg" viewBox="0 0 127.22 376.52"><defs><style>.cls-1,.cls-10,.cls-16,.cls-2,.cls-7{fill:#fff;}.cls-1{opacity:0.39;}.cls-11,.cls-2,.cls-7,.cls-8,.cls-9{stroke:#fff;}.cls-15,.cls-2,.cls-4,.cls-5,.cls-7,.cls-8,.cls-9{stroke-miterlimit:10;}.cls-3{fill:#dadada;}.cls-11,.cls-14,.cls-15,.cls-4,.cls-8,.cls-9{fill:none;}.cls-4{stroke:#dadada;stroke-width:5px;}.cls-5{fill:#e41d20;stroke:#e41d20;}.cls-6{fill:#ec644c;}.cls-7{stroke-width:0.75px;}.cls-11,.cls-9{stroke-width:0.5px;}.cls-11{stroke-linecap:round;stroke-linejoin:round;}.cls-12{fill:#be1622;}.cls-13{fill:#3c3c3b;}.cls-15{stroke:#1d1d1b;stroke-width:4px;opacity:0.92;}.cls-16{opacity:0.18;}</style></defs><g id="Capa_2" data-name="Capa 2"><g id="Capa_3" data-name="Capa 3"><path class="cls-1" d="M2.46,57.43c.12-9.37,2.22-19.12,8-26.68a15,15,0,0,1,3.16-3.21c5.86-4.14,15.42-5.85,22.24-8.26l22.84-8.07,28.42-10c11.28-4,22.42,2.77,29.68,11.07,7.81,8.93,9.61,20.75,9.49,32.28-.37,36.85-.39,73.71-.39,110.65v2.71l1.3,218.63-7.44-3.41V69.92c0-13.76-.15-27.91-3.85-41.26-1.76-6.34-4.41-13-9.41-17.53-7.79-7-18.4-4.59-27.47-1.39C59.85,16.51,40.61,23,21.3,29.58,10.21,35,5,45.81,2.46,57.43Z"/><path class="cls-2" d="M.52,319.84V89.17C.14,55.87,6.43,33.44,24.79,28.33L82.36,8.77c23.75-9.42,37,9.13,37.42,57.66V375Z"/><path class="cls-3" d="M109.48,47.82V370.21L6.13,322.43V73.75c1-19.08,8.28-28.47,21.73-29.56-.42,13.47,2.54,20.17,8.84,20.75l35.07-8.25C82.13,51.56,81.4,34,82,28.21,100,19.66,106.7,30.49,109.48,47.82Z"/><line class="cls-4" x1="33.87" y1="49.37" x2="70.38" y2="39.25"/><path class="cls-5" d="M10.16,78.53l-.15,16,93-14.42L103.2,60Zm82.38,1.94a.55.55,0,0,1-.16.31.31.31,0,0,1-.25.09h0a7,7,0,0,0-1.11.15c-.19,0-.32-.16-.33-.41a.54.54,0,0,1,.34-.53l.59-.11a2.88,2.88,0,0,1,.65,0c.09,0,.16.1.2.19A.59.59,0,0,1,92.54,80.47Z"/><path class="cls-6" d="M80.73,80.35,37.4,87.06c-2.09.32-3.75-2.13-3.71-5.45v0c0-3.32,1.77-6.36,3.86-6.74l43.36-8.07c2.61-.49,4.73,2.19,4.67,6v0C85.54,76.53,83.34,80,80.73,80.35Z"/><path class="cls-7" d="M27.35,85.21,25,85.6l-.55,2.47-.74.11,2.22-9.47.64-.12,2,8.82-.76.12Zm-2.1-.63,1.89-.32-.9-4.12Z"/><line class="cls-8" x1="12.4" y1="82.44" x2="18.9" y2="81.29"/><line class="cls-8" x1="12.36" y1="86.35" x2="18.85" y2="85.26"/><line class="cls-8" x1="12.31" y1="90.25" x2="18.8" y2="89.23"/><path class="cls-9" d="M39.12,80.12c0,1.58-.84,3-1.82,3.15s-1.76-1-1.74-2.54.83-3,1.81-3.15S39.15,78.54,39.12,80.12Z"/><line class="cls-9" x1="40.33" y1="84.9" x2="38.64" y2="82.09"/><path class="cls-10" d="M100,65.23l-.08,5.09a.81.81,0,0,1-.81.85l-7.82,2.61a2,2,0,0,1-.11,1.42l4.23-.69L98.28,74c.6,0,.77,1.09,0,1.41l-.21,0c1.26.55.69,2.57-.23,2.75-1.35-.16-1.14-1.92-.26-2.66l-6.45,1-.51.07c-.64.13-.78-.29-.58-1.08l.28-.79a1,1,0,0,0,0-.69L89.15,66l-1.55.28a.56.56,0,0,1-.46-.66.88.88,0,0,1,.4-.68l1.93-.37c.56-.2.59.37.68,1.27l9.26-1.71C99.82,64.05,100,64.37,100,65.23Z"/><path class="cls-11" d="M91.08,76.61c-.06,0-.26,2.47-.33,2.71"/><path class="cls-11" d="M91.08,76.61l-.51.07c-.64.13-.78-.29-.58-1.08l.28-.79a1,1,0,0,0,0-.69L89.15,66l-1.55.28a.56.56,0,0,1-.46-.66.88.88,0,0,1,.4-.68l1.93-.37c.56-.2.59.37.68,1.27l9.26-1.71c.41-.1.61.22.55,1.08l-.08,5.09a.81.81,0,0,1-.81.85l-7.82,2.61a2,2,0,0,1-.11,1.42l4.23-.69L98.28,74c.6,0,.77,1.09,0,1.41l-.21,0c1.26.55.69,2.57-.23,2.75-1.35-.16-1.14-1.92-.26-2.66Z"/><path class="cls-2" d="M98.74,76.8a1.51,1.51,0,0,1-1,1.53c-.54.08-1-.46-1-1.22a1.51,1.51,0,0,1,1-1.52C98.32,75.51,98.76,76.05,98.74,76.8Z"/><path class="cls-2" d="M91.75,77.83a1.48,1.48,0,0,1-1,1.5c-.52.08-.94-.46-.93-1.2a1.46,1.46,0,0,1,1-1.49C91.34,76.55,91.76,77.09,91.75,77.83Z"/><polygon class="cls-12" points="91.78 168 17.58 166.09 17.58 105.54 91.78 95.32 91.78 168"/><polygon class="cls-13" points="93.75 334.14 18.95 304.38 18.95 243.62 93.75 261.14 93.75 334.14"/><line class="cls-14" x1="10.01" y1="178.76" x2="103.2" y2="184.47"/><line class="cls-15" x1="11.7" y1="177.41" x2="98.1" y2="182.36"/><line class="cls-15" x1="17.98" y1="187.23" x2="94.04" y2="193.52"/><line class="cls-15" x1="23.96" y1="198.46" x2="92.35" y2="206.07"/><line class="cls-15" x1="14.36" y1="207.3" x2="100.56" y2="219.22"/><line class="cls-15" x1="21.01" y1="221.67" x2="97.62" y2="235.03"/><line class="cls-15" x1="16.02" y1="231.31" x2="100.56" y2="248.46"/><line class="cls-15" x1="21.01" y1="314.73" x2="97.62" y2="347.16"/><line class="cls-15" x1="16.02" y1="323.13" x2="100.56" y2="361.33"/><polygon class="cls-3" points="6.13 322.43 6.13 374.97 109.48 376.52 109.48 370.21 6.13 322.43"/><polygon class="cls-10" points="119.78 373.11 119.78 376.52 109.48 376.52 109.48 370.21 119.78 373.11"/><rect class="cls-10" x="0.5" y="317.28" width="5.63" height="57.69"/><polygon class="cls-16" points="127.22 376.52 119.78 376.52 119.78 370.21 127.22 376.52"/></g></g></svg>